<svg width="539" height="120" viewBox="0 0 539 120" fill="none" xmlns="http://www.w3.org/2000/svg">
<path d="M173.291 81.337C173.291 84.761 172.407 87.6421 170.638 89.9821C168.869 92.2641 166.472 94.0041 163.448 95.2031C160.481 96.4011 157.229 97.0001 153.691 97.0001H124.334V36.2311H156.858C159.711 36.2311 162.164 37.0011 164.219 38.5421C166.33 40.0261 167.927 41.9661 169.012 44.3621C170.153 46.7021 170.723 49.1551 170.723 51.7231C170.723 54.6331 169.982 57.4001 168.498 60.0251C167.015 62.6501 164.846 64.59 161.993 65.845C165.474 66.872 168.213 68.7271 170.21 71.4091C172.264 74.0901 173.291 77.4 173.291 81.337ZM161.394 79.1121C161.394 77.5711 161.08 76.2021 160.453 75.0031C159.825 73.7481 158.969 72.7781 157.885 72.0931C156.858 71.3521 155.66 70.9811 154.29 70.9811H136.145V86.9861H153.691C155.118 86.9861 156.401 86.644 157.543 85.959C158.741 85.217 159.682 84.2471 160.367 83.0491C161.052 81.8511 161.394 80.5381 161.394 79.1121ZM136.145 46.3311V61.6511H151.894C153.206 61.6511 154.404 61.3371 155.488 60.7101C156.573 60.0821 157.428 59.1981 158.056 58.0571C158.741 56.9151 159.083 55.5461 159.083 53.9481C159.083 52.4081 158.769 51.0671 158.142 49.9261C157.571 48.7841 156.772 47.9 155.745 47.272C154.775 46.645 153.663 46.3311 152.407 46.3311H136.145ZM181.752 105.73C182.779 105.958 183.72 106.158 184.576 106.329C185.489 106.5 186.26 106.586 186.887 106.586C187.971 106.586 188.856 106.301 189.541 105.73C190.282 105.217 190.996 104.247 191.68 102.82C192.365 101.451 193.078 99.5111 193.82 97.0001L176.103 52.1511H188L200.068 85.274L210.681 52.1511H221.637L202.807 105.901C202.122 107.898 201.067 109.696 199.64 111.294C198.271 112.948 196.53 114.232 194.419 115.145C192.365 116.115 190.054 116.6 187.486 116.6C186.573 116.6 185.66 116.515 184.747 116.343C183.835 116.229 182.836 116.001 181.752 115.659V105.73ZM254.743 94.6891C253.773 95.0881 252.604 95.5451 251.234 96.0591C249.865 96.5721 248.381 96.9711 246.784 97.2571C245.243 97.5991 243.674 97.7701 242.076 97.7701C239.965 97.7701 238.025 97.3991 236.256 96.6581C234.487 95.9161 233.061 94.7461 231.976 93.1481C230.949 91.4941 230.436 89.3541 230.436 86.7291V60.967H224.53V52.1511H230.436V37.6011H241.905V52.1511H251.32V60.967H241.905V82.8781C241.962 84.4181 242.39 85.5311 243.189 86.2161C243.988 86.9001 244.986 87.243 246.184 87.243C247.383 87.243 248.552 87.043 249.694 86.644C250.835 86.244 251.748 85.9021 252.432 85.6171L254.743 94.6891ZM281.014 97.8561C277.419 97.8561 274.166 97.2571 271.256 96.0591C268.346 94.8031 265.864 93.12 263.81 91.009C261.756 88.84 260.158 86.3871 259.017 83.6481C257.933 80.8521 257.391 77.913 257.391 74.832C257.391 70.553 258.332 66.6441 260.215 63.1061C262.155 59.5691 264.894 56.7441 268.432 54.6331C272.027 52.4651 276.249 51.381 281.099 51.381C286.006 51.381 290.2 52.4651 293.681 54.6331C297.161 56.7441 299.815 59.5691 301.641 63.1061C303.524 66.5871 304.465 70.3531 304.465 74.4041C304.465 75.0891 304.437 75.8021 304.38 76.5441C304.323 77.2291 304.265 77.799 304.208 78.256H269.544C269.773 80.538 270.429 82.5351 271.513 84.2471C272.654 85.9591 274.081 87.2711 275.793 88.1841C277.561 89.0401 279.444 89.4681 281.441 89.4681C283.724 89.4681 285.864 88.926 287.861 87.842C289.915 86.701 291.313 85.2171 292.055 83.3911L301.897 86.1301C300.813 88.4121 299.244 90.438 297.19 92.207C295.193 93.976 292.825 95.3741 290.086 96.4011C287.347 97.3711 284.323 97.8561 281.014 97.8561ZM269.288 70.9811H292.739C292.511 68.6981 291.855 66.7301 290.771 65.0751C289.744 63.3631 288.374 62.0511 286.662 61.1381C284.951 60.1681 283.039 59.683 280.928 59.683C278.874 59.683 276.991 60.1681 275.279 61.1381C273.624 62.0511 272.255 63.3631 271.171 65.0751C270.144 66.7301 269.516 68.6981 269.288 70.9811ZM337.814 97.428C333.877 97.428 330.139 96.6291 326.602 95.0311C323.121 93.4341 320.04 91.237 317.358 88.441C314.733 85.588 312.679 82.2791 311.195 78.5131C309.712 74.7471 308.97 70.6671 308.97 66.2731C308.97 62.1081 309.712 58.1991 311.195 54.5471C312.679 50.8381 314.762 47.586 317.443 44.79C320.125 41.994 323.264 39.7971 326.858 38.2001C330.453 36.6021 334.362 35.803 338.584 35.803C344.29 35.803 349.169 37.0301 353.22 39.4841C357.328 41.8801 360.41 45.0751 362.464 49.0701L353.648 55.574C352.107 52.55 349.939 50.2391 347.143 48.6421C344.404 47.0441 341.409 46.2451 338.156 46.2451C335.588 46.2451 333.249 46.787 331.138 47.871C329.027 48.955 327.201 50.4391 325.66 52.3221C324.119 54.2051 322.921 56.3731 322.065 58.8271C321.266 61.2801 320.867 63.8771 320.867 66.6161C320.867 69.5261 321.295 72.2071 322.151 74.6611C323.064 77.1151 324.319 79.2541 325.917 81.0801C327.572 82.9061 329.483 84.3611 331.651 85.4451C333.82 86.4721 336.216 86.9861 338.841 86.9861C341.922 86.9861 344.861 86.187 347.657 84.5891C350.51 82.9921 353.163 80.652 355.617 77.571V89.2111C350.538 94.6891 344.604 97.428 337.814 97.428ZM354.761 74.4041H342.521V65.7601H364.518V97.0001H354.761V74.4041ZM394.27 97.8561C390.675 97.8561 387.423 97.2571 384.513 96.0591C381.602 94.8031 379.12 93.12 377.066 91.009C375.012 88.84 373.414 86.3871 372.273 83.6481C371.189 80.8521 370.647 77.913 370.647 74.832C370.647 70.553 371.588 66.6441 373.471 63.1061C375.411 59.5691 378.15 56.7441 381.688 54.6331C385.283 52.4651 389.505 51.381 394.355 51.381C399.263 51.381 403.456 52.4651 406.937 54.6331C410.418 56.7441 413.071 59.5691 414.897 63.1061C416.78 66.5871 417.721 70.3531 417.721 74.4041C417.721 75.0891 417.693 75.8021 417.636 76.5441C417.579 77.2291 417.522 77.799 417.465 78.256H382.801C383.029 80.538 383.685 82.5351 384.769 84.2471C385.911 85.9591 387.337 87.2711 389.049 88.1841C390.818 89.0401 392.701 89.4681 394.698 89.4681C396.98 89.4681 399.12 88.926 401.117 87.842C403.171 86.701 404.569 85.2171 405.311 83.3911L415.154 86.1301C414.07 88.4121 412.5 90.438 410.446 92.207C408.449 93.976 406.081 95.3741 403.342 96.4011C400.603 97.3711 397.579 97.8561 394.27 97.8561ZM382.544 70.9811H405.996C405.767 68.6981 405.111 66.7301 404.027 65.0751C403 63.3631 401.631 62.0511 399.919 61.1381C398.207 60.1681 396.295 59.683 394.184 59.683C392.13 59.683 390.247 60.1681 388.535 61.1381C386.881 62.0511 385.511 63.3631 384.427 65.0751C383.4 66.7301 382.772 68.6981 382.544 70.9811ZM466.391 97.0001H454.922V71.837C454.922 68.242 454.294 65.617 453.039 63.962C451.783 62.308 450.043 61.48 447.818 61.48C446.277 61.48 444.708 61.88 443.11 62.678C441.57 63.477 440.172 64.5901 438.916 66.0161C437.661 67.3861 436.748 68.9841 436.177 70.8091V97.0001H424.708V52.1511H435.065V60.4531C436.206 58.5131 437.661 56.887 439.43 55.574C441.199 54.205 443.224 53.178 445.507 52.493C447.846 51.751 450.3 51.381 452.868 51.381C455.663 51.381 457.946 51.8941 459.715 52.9211C461.541 53.8911 462.91 55.232 463.823 56.944C464.793 58.599 465.449 60.4821 465.792 62.5931C466.191 64.7041 466.391 66.8441 466.391 69.0121V97.0001ZM476.363 97.0001V52.1511H487.832V97.0001H476.363ZM476.363 45.9031V34.519H487.832V45.9031H476.363ZM505.539 52.1511L514.954 66.188L515.639 67.7281L516.495 66.188L525.824 52.1511H537.892L522.315 74.4901L538.149 97.0001H526.081L516.409 83.0491L515.639 81.5941L514.954 83.0491L505.368 97.0001H493.3L509.134 74.7471L493.557 52.1511H505.539Z" fill="#066AC9"/>
<path d="M36.799 84.5641L37.53 65.7991H91.389C107.535 113.767 83.59 118.439 80.91 118.439H34.85L35.581 107.472C73.629 118.263 83.4 84.8421 69.212 75.0601C55.023 65.2781 41.269 75.7391 38.749 84.5641H36.799Z" fill="#066AC9" stroke="#066AC9" stroke-width="2.47374"/>
<path d="M0 118.439L4.87399 0.244019H30.95L29.976 29C1.33514e-05 58.001 10.719 92.264 27.051 101.867L26.076 118.439H0Z" fill="#066AC9"/>
<path d="M39.48 0.216889L38.505 25.0739C54.386 16.8249 74.086 19.2519 76.279 35.7969C78.472 52.3419 61.263 53.4079 39.48 53.3709L38.018 57.5139C63.511 57.0269 88.708 59.1919 94.8 40.9149C100.893 22.6369 88.708 0.703889 69.943 0.216889C51.178 -0.271111 39.48 0.216889 39.48 0.216889Z" fill="#066AC9"/>
<path d="M93.582 17.5471C68.724 7.55508 46.791 18.7651 38.505 25.1011L42.161 23.3951L44.354 22.6641L47.278 21.9331L49.959 21.2021L53.371 20.7151L58.001 20.4711L61.657 20.9581L64.581 21.6901C79.953 27.0071 83.7 34.5911 88.952 49.4721C97.481 42.8921 98.058 27.5081 93.582 17.5471Z" fill="url(#paint0_linear_2_26)"/>
<path d="M77.985 54.833C82.591 43.763 77.985 31.925 70.674 24.614L72.136 25.345C80.91 29.244 85.457 37.775 89.439 49.228L88.221 50.202L87.246 50.934L85.296 52.152L82.859 53.371L80.666 54.102L77.985 54.833Z" fill="url(#paint1_linear_2_26)"/>
<path d="M1.46204 83.5891C7.84504 51.286 15.755 43.1011 29.975 28.7571L30.95 0.487061H4.87402L1.46204 83.5891Z" fill="url(#paint2_linear_2_26)"/>
<path d="M26.076 118.195C6.42299 95.6421 -4.143 69.211 20.227 39.967L19.74 40.6981L17.79 44.11C3.65501 72.623 14.108 91.4631 27.051 102.111L26.076 118.195Z" fill="url(#paint3_linear_2_26)" stroke="url(#paint4_linear_2_26)" stroke-width="0.824579"/>
<path d="M81.153 119.17C62.365 117.532 52.245 112.573 34.85 106.498L34.362 113.077L33.875 119.17H58.001H81.153Z" fill="url(#paint5_linear_2_26)"/>
<path d="M63.85 105.523C81.592 94.873 85.742 83.776 91.876 65.068H64.582H36.799C80.866 67.52 81.397 93.338 63.85 105.523Z" fill="url(#paint6_linear_2_26)"/>
<defs>
<linearGradient id="paint0_linear_2_26" x1="67.506" y1="16.0841" x2="106.986" y2="40.2111" gradientUnits="userSpaceOnUse">
<stop stop-color="#15198A"/>
<stop offset="1" stop-color="#066AC9"/>
</linearGradient>
<linearGradient id="paint1_linear_2_26" x1="65.556" y1="18.278" x2="90.901" y2="63.362" gradientUnits="userSpaceOnUse">
<stop stop-color="#D3DEE9"/>
<stop offset="1" stop-color="#066AC9"/>
</linearGradient>
<linearGradient id="paint2_linear_2_26" x1="32.656" y1="7.79806" x2="-13.8909" y2="77.9851" gradientUnits="userSpaceOnUse">
<stop stop-color="#066AC9"/>
<stop offset="1" stop-color="#15198A"/>
</linearGradient>
<linearGradient id="paint3_linear_2_26" x1="15.353" y1="40.942" x2="33.387" y2="129.162" gradientUnits="userSpaceOnUse">
<stop stop-color="#066AC9"/>
<stop offset="1" stop-color="#D3DEE9"/>
</linearGradient>
<linearGradient id="paint4_linear_2_26" x1="15.353" y1="40.942" x2="33.387" y2="129.162" gradientUnits="userSpaceOnUse">
<stop stop-color="#066AC9"/>
<stop offset="1" stop-color="#D3DEE9"/>
</linearGradient>
<linearGradient id="paint5_linear_2_26" x1="35.106" y1="109.954" x2="66.162" y2="116.806" gradientUnits="userSpaceOnUse">
<stop stop-color="#D3DEE9"/>
<stop offset="1" stop-color="#066AC9"/>
</linearGradient>
<linearGradient id="paint6_linear_2_26" x1="53.198" y1="60.408" x2="91.471" y2="123.369" gradientUnits="userSpaceOnUse">
<stop stop-color="#D3DEE9"/>
<stop offset="0.713894" stop-color="#066AC9"/>
</linearGradient>
</defs>
</svg>
